<?xml version="1.0" standalone="no"?>
<!DOCTYPE svg PUBLIC "-//W3C//DTD SVG 20010904//EN"
 "http://www.w3.org/TR/2001/REC-SVG-20010904/DTD/svg10.dtd">
<svg version="1.0" xmlns="http://www.w3.org/2000/svg"
 width="260.000000pt" height="260.000000pt" viewBox="0 0 260.000000 260.000000"
 preserveAspectRatio="xMidYMid meet">
<metadata>
Created by potrace 1.11, written by Peter Selinger 2001-2013
</metadata>
<g transform="translate(0.000000,260.000000) scale(0.100000,-0.100000)"
fill="#000000" stroke="none">
<path d="M1241 2573 c13 -15 26 -30 30 -33 11 -10 177 -246 212 -302 20 -32
48 -80 62 -108 22 -44 30 -50 65 -56 l40 -7 -25 -23 c-26 -24 -25 -38 5 -99
16 -31 67 -174 124 -347 29 -87 55 -160 58 -163 10 -11 141 55 198 98 105 82
262 168 360 199 75 23 127 48 188 90 l42 29 0 374 0 375 -692 0 -691 0 24 -27z"/>
<path d="M570 2139 c-22 -82 -60 -275 -60 -306 0 -47 23 -44 162 24 87 43 118
63 118 76 0 22 -65 154 -88 181 -23 25 -88 66 -106 66 -9 0 -20 -17 -26 -41z"/>
<path d="M937 1471 c-15 -22 -65 -86 -113 -142 l-86 -103 28 -8 c16 -5 97 -13
180 -18 82 -5 158 -12 167 -16 9 -3 17 -3 17 0 0 9 -159 326 -164 326 -2 0
-15 -18 -29 -39z"/>
<path d="M2124 715 c-36 -16 -69 -54 -89 -102 -8 -18 -19 -33 -24 -33 -18 0
-13 -37 21 -170 27 -110 31 -142 32 -267 l1 -143 268 0 267 0 0 328 0 327
-107 27 c-191 48 -310 59 -369 33z"/>
<path d="M488 613 c-17 -3 -28 -12 -32 -28 -7 -29 44 -292 78 -400 14 -44 30
-104 36 -133 l12 -52 383 0 384 0 -4 33 c-14 117 -26 277 -28 366 l-2 105 -50
13 c-108 28 -276 54 -405 63 -74 5 -175 16 -224 24 -89 16 -98 17 -148 9z"/>
</g>
</svg>
